<?xml version="1.0" encoding="UTF-8" standalone="no"?>
<!-- Created with Inkscape (http://www.inkscape.org/) -->

<svg
   xmlns:dc="http://purl.org/dc/elements/1.1/"
   xmlns:cc="http://creativecommons.org/ns#"
   xmlns:rdf="http://www.w3.org/1999/02/22-rdf-syntax-ns#"
   xmlns:svg="http://www.w3.org/2000/svg"
   xmlns="http://www.w3.org/2000/svg"
   xmlns:sodipodi="http://sodipodi.sourceforge.net/DTD/sodipodi-0.dtd"
   xmlns:inkscape="http://www.inkscape.org/namespaces/inkscape"
   width="500"
   height="500"
   id="svg3011"
   version="1.1"
   inkscape:version="0.48.4 r9939"
   sodipodi:docname="github.svg">
  <defs
     id="defs3013" />
  <sodipodi:namedview
     id="base"
     pagecolor="#ffffff"
     bordercolor="#666666"
     borderopacity="1.0"
     inkscape:pageopacity="0.0"
     inkscape:pageshadow="2"
     inkscape:zoom="1.201"
     inkscape:cx="103.13729"
     inkscape:cy="255.92813"
     inkscape:document-units="px"
     inkscape:current-layer="layer1"
     showgrid="false"
     inkscape:window-width="1366"
     inkscape:window-height="744"
     inkscape:window-x="0"
     inkscape:window-y="24"
     inkscape:window-maximized="1" />
  <metadata
     id="metadata3016">
    <rdf:RDF>
      <cc:Work
         rdf:about="">
        <dc:format>image/svg+xml</dc:format>
        <dc:type
           rdf:resource="http://purl.org/dc/dcmitype/StillImage" />
        <dc:title />
      </cc:Work>
    </rdf:RDF>
  </metadata>
  <g
     inkscape:label="Layer 1"
     inkscape:groupmode="layer"
     id="layer1"
     transform="translate(0,-552.36218)">
    <path
       style="fill:#333333;fill-opacity:1;stroke:none"
       d="m 250,552.36214 c -138.07114,0 -250,111.92883 -250,250 0,138.0712 111.92886,250.00006 250,250.00006 138.07114,0 250,-111.92886 250,-250.00006 0,-138.07117 -111.92886,-250 -250,-250 z m 154.5,95.09375 c 1.68991,-0.0483 3.06365,0.0259 4.09375,0.21875 l 2.90625,0.5625 c 3.9931,9.91403 6.7073,19.62867 8.1875,29.15625 1.4809,9.52759 1.80565,17.94425 0.96875,25.21875 -0.8369,7.27451 -1.7218,12.85436 -2.6875,16.78125 -0.9657,3.9269 -2.0289,7.44126 -3.1875,10.53125 21.37,23.30295 32.0625,50.91492 32.0625,82.84375 0,17.89431 -1.68355,34.11031 -5.03125,48.59375 -3.3468,14.48423 -8.0145,27.06464 -14,37.75 -5.9856,10.6846 -13.57445,20.07687 -22.78125,28.1875 -9.2059,8.11141 -19.1866,14.72475 -29.9375,19.875 -10.7509,5.14946 -23.00585,9.3437 -36.78125,12.5625 -13.7753,3.21803 -27.8344,5.46187 -42.125,6.75 -14.2907,1.28737 -30.0607,1.9375 -47.3125,1.9375 -17.123,0 -32.8343,-0.65013 -47.125,-1.9375 -14.2905,-1.28813 -28.28881,-3.5312 -42,-6.75 -13.7114,-3.21957 -25.90835,-7.41381 -36.59375,-12.5625 -10.6853,-5.14948 -20.57835,-11.76359 -29.71875,-19.875 -9.1411,-8.11063 -16.67135,-17.50136 -22.59375,-28.1875 -5.9223,-10.68613 -10.55945,-23.26654 -13.90625,-37.75 -3.3484,-14.48422 -5.03125,-30.69944 -5.03125,-48.59375 0,-31.9296 10.691703,-59.5408 32.0625,-82.84375 -1.1585,-3.08999 -2.2218,-6.60436 -3.1875,-10.53125 -0.965002,-3.92689 -1.88185,-9.50751 -2.71875,-16.78125 -0.8369,-7.27373 -0.51145,-15.69116 0.96875,-25.21875 1.480202,-9.52836 4.22785,-19.24222 8.21875,-29.15625 0.7721,-0.25686 1.8361,-0.49466 3.1875,-0.6875 1.3512,-0.19283 4.5998,-0.0153 9.75,0.5 5.1495,0.51526 10.67215,1.63641 16.59375,3.375 5.9224,1.73783 13.8977,5.07463 23.875,10.03125 9.9773,4.95663 20.43131,11.18891 31.375,18.65625 18.7968,-5.14946 44.5483,-7.71875 77.25,-7.71875 32.8298,0 58.6415,2.56929 77.4375,7.71875 10.9438,-7.46734 21.3383,-13.69962 31.1875,-18.65625 9.8493,-4.95662 17.881,-8.29342 24.125,-10.03125 6.2432,-1.73859 11.7385,-2.88947 16.4375,-3.46875 2.34945,-0.28964 4.34134,-0.4517 6.03125,-0.5 z M 178.3125,795.48714 c -4.0393,-0.0322 -8.1585,0.0267 -12.375,0.1875 -8.4331,0.32242 -15.993,1.67983 -22.6875,4.0625 -6.6944,2.3819 -12.5418,5.89473 -17.5625,10.53125 -16.8653,15.44916 -25.3125,32.42959 -25.3125,50.96875 0,11.07104 1.38785,20.90611 4.15625,29.46875 2.7675,8.56265 6.3125,15.73772 10.625,21.53125 4.3125,5.79431 10.30855,10.72631 17.96875,14.78125 7.6601,4.05493 15.1013,7.15315 22.375,9.34375 7.2745,2.1883 16.6065,3.90165 28,5.125 11.3935,1.22333 21.58375,1.96189 30.53125,2.21875 8.9476,0.25764 20.31835,0.40625 34.09375,0.40625 13.7753,0 25.1142,-0.14861 34.0625,-0.40625 8.9483,-0.25686 19.13625,-0.99542 30.53125,-2.21875 11.3935,-1.22335 20.7255,-2.9367 28,-5.125 7.2745,-2.1906 14.74605,-5.28805 22.40625,-9.34375 7.661,-4.05494 13.6242,-8.98771 17.9375,-14.78125 4.3133,-5.79276 7.8566,-12.9686 10.625,-21.53125 2.7691,-8.56264 4.15625,-18.39617 4.15625,-29.46875 0,-18.79678 -8.41675,-35.77644 -25.28125,-50.96875 -5.0222,-4.63652 -10.90005,-8.14935 -17.59375,-10.53125 -6.6967,-2.38267 -14.2544,-3.74008 -22.6875,-4.0625 -8.4346,-0.32164 -16.49375,-0.23248 -24.21875,0.21875 -7.7265,0.45047 -17.26355,1.04039 -28.59375,1.8125 -11.3295,0.77288 -21.10355,1.15625 -29.34375,1.15625 -8.2394,0 -18.0455,-0.38337 -29.375,-1.15625 -11.3294,-0.77211 -20.8382,-1.36203 -28.5625,-1.8125 -3.8625,-0.22562 -7.8357,-0.37405 -11.875,-0.40625 z m -3,24.84375 c 13.632,0 24.6875,16.58304 24.6875,37.03125 0,20.44823 -11.0555,37.03125 -24.6875,37.03125 -13.63189,0 -24.6875,-16.58302 -24.6875,-37.03125 0,-20.44821 11.05561,-37.03125 24.6875,-37.03125 z m 148.09375,0 c 13.6319,0 24.6875,16.58304 24.6875,37.03125 0,20.44823 -11.0556,37.03125 -24.6875,37.03125 -13.6319,0 -24.6875,-16.58302 -24.6875,-37.03125 0,-20.44821 11.0556,-37.03125 24.6875,-37.03125 z"
       id="path4202"
       inkscape:connector-curvature="0" />
  </g>
</svg>
